<?xml version="1.0" encoding="utf-8"?>

<!-- Generator: Adobe Illustrator 16.0.0, SVG Export Plug-In . SVG Version: 6.00 Build 0)  -->

<!DOCTYPE svg PUBLIC "-//W3C//DTD SVG 1.1//EN" "http://www.w3.org/Graphics/SVG/1.1/DTD/svg11.dtd">

<svg version="1.1" id="Capa_1" xmlns="http://www.w3.org/2000/svg" xmlns:xlink="http://www.w3.org/1999/xlink" x="0px" y="0px"

	 width="45px" height="45px" viewBox="0 0 45 45" enable-background="new 0 0 45 45" xml:space="preserve">

<g>

	<g>

		<path fill="#fff" d="M22.5,2.656c9.071,0,16.452,7.38,16.452,16.452c0,9.07-7.381,16.45-16.452,16.45

			c-9.072,0-16.453-7.38-16.453-16.45C6.046,10.036,13.427,2.656,22.5,2.656z M22.5,37.198c9.976,0,18.092-8.115,18.092-18.09

			c0-9.976-8.116-18.092-18.092-18.092c-9.977,0-18.092,8.116-18.092,18.092C4.408,29.083,12.523,37.198,22.5,37.198z"/>

		<g>

			<path fill="#fff" d="M22.5,19.209c0.363,0,0.658,0.662,0.658,1.474v22.841c0,0.814-0.294,1.476-0.658,1.476

				s-0.658-0.66-0.658-1.476V20.683C21.841,19.872,22.136,19.209,22.5,19.209z"/>

		</g>

		<polyline fill="#fff" points="26.741,20.696 22.545,16.501 18.35,20.696 		"/>

	</g>

</g>

</svg>

